<svg width="366" height="97" viewBox="0 0 733 195" fill="none" xmlns="http://www.w3.org/2000/svg">
<ellipse cx="57.5004" cy="136" rx="23.5" ry="20" fill="#C4C4C4"/>
<ellipse cx="107.5" cy="168" rx="23.5" ry="20" fill="#C4C4C4"/>
<ellipse cx="145.5" cy="168" rx="23.5" ry="20" fill="#C4C4C4"/>
<ellipse cx="168.5" cy="164" rx="23.5" ry="20" fill="#C4C4C4"/>
<ellipse cx="190.5" cy="147" rx="23.5" ry="20" fill="#C4C4C4"/>
<ellipse cx="190.5" cy="147" rx="23.5" ry="20" fill="#C4C4C4"/>
<ellipse cx="40.5004" cy="122" rx="23.5" ry="20" fill="#C4C4C4"/>
<ellipse cx="215.5" cy="122" rx="23.5" ry="20" fill="#C4C4C4"/>
<ellipse cx="79.5004" cy="155" rx="23.5" ry="20" fill="#C4C4C4"/>
<ellipse cx="130.5" cy="103" rx="69.5" ry="72" fill="#FFFAFA"/>
<ellipse cx="130.5" cy="103" rx="69.5" ry="72" fill="#FFFAFA"/>
<ellipse cx="130.5" cy="103" rx="69.5" ry="72" fill="#FFFAFA"/>
<ellipse cx="105.5" cy="120.5" rx="20.5" ry="17.5" fill="#FFFAFA"/>
<ellipse cx="105.5" cy="120.5" rx="20.5" ry="17.5" fill="#FFFAFA"/>
<ellipse cx="105.5" cy="120.5" rx="20.5" ry="17.5" fill="#0F0F0F"/>
<ellipse cx="105.5" cy="120.5" rx="20.5" ry="17.5" fill="#0F0F0F"/>
<ellipse cx="153.5" cy="120.5" rx="21.5" ry="17.5" fill="#FFFAFA"/>
<ellipse cx="153.5" cy="120.5" rx="21.5" ry="17.5" fill="#FFFAFA"/>
<ellipse cx="153.5" cy="120.5" rx="21.5" ry="17.5" fill="#0F0F0F"/>
<ellipse cx="153.5" cy="120.5" rx="21.5" ry="17.5" fill="#0F0F0F"/>
<g filter="url(#filter0_d_5_115)">
<path d="M120 120H140" stroke="black" stroke-width="3"/>
</g>
<g filter="url(#filter1_d_5_115)">
<path d="M130 159L131 175" stroke="black" stroke-width="3"/>
</g>
<g filter="url(#filter2_d_5_115)">
<path d="M157 120L200 87" stroke="black" stroke-width="3"/>
</g>
<g filter="url(#filter3_d_5_115)">
<path d="M61.0004 87L102 120" stroke="black" stroke-width="3"/>
</g>
<ellipse cx="87.0004" cy="63" rx="13" ry="20" fill="#C4C4C4"/>
<ellipse cx="129" cy="63" rx="13" ry="20" fill="#C4C4C4"/>
<ellipse cx="60.5004" cy="53" rx="20.5" ry="20" fill="#C4C4C4"/>
<ellipse cx="111.5" cy="33" rx="20.5" ry="20" fill="#C4C4C4"/>
<ellipse cx="146.5" cy="33" rx="20.5" ry="20" fill="#C4C4C4"/>
<ellipse cx="79.5004" cy="33" rx="20.5" ry="20" fill="#C4C4C4"/>
<ellipse cx="104.5" cy="20" rx="20.5" ry="20" fill="#C4C4C4"/>
<ellipse cx="133.5" cy="20" rx="20.5" ry="20" fill="#C4C4C4"/>
<ellipse cx="168.5" cy="20" rx="20.5" ry="20" fill="#C4C4C4"/>
<ellipse cx="199.5" cy="63" rx="20.5" ry="20" fill="#C4C4C4"/>
<ellipse cx="104.5" cy="53" rx="20.5" ry="20" fill="#C4C4C4"/>
<ellipse cx="189.5" cy="33" rx="20.5" ry="20" fill="#C4C4C4"/>
<ellipse cx="74.0004" cy="63" rx="13" ry="20" fill="#C4C4C4"/>
<ellipse cx="187" cy="63" rx="13" ry="20" fill="#C4C4C4"/>
<ellipse cx="166" cy="60" rx="13" ry="20" fill="#C4C4C4"/>
<ellipse cx="148" cy="63" rx="13" ry="20" fill="#C4C4C4"/>
<ellipse cx="109" cy="63" rx="13" ry="20" fill="#C4C4C4"/>
<mask id="path-34-inside-1_5_115" fill="white">
<path fill-rule="evenodd" clip-rule="evenodd" d="M113 145.4C116.286 154.623 123.335 161 131.5 161C139.666 161 146.715 154.623 150 145.4H113Z"/>
</mask>
<path fill-rule="evenodd" clip-rule="evenodd" d="M113 145.4C116.286 154.623 123.335 161 131.5 161C139.666 161 146.715 154.623 150 145.4H113Z" fill="#FFFAFA"/>
<path d="M113 145.4V142.4H108.747L110.174 146.407L113 145.4ZM150 145.4L152.826 146.407L154.254 142.4H150V145.4ZM131.5 158C125.041 158 118.854 152.894 115.826 144.393L110.174 146.407C113.717 156.353 121.628 164 131.5 164V158ZM147.174 144.393C144.146 152.894 137.96 158 131.5 158V164C141.372 164 149.284 156.353 152.826 146.407L147.174 144.393ZM150 142.4H113V148.4H150V142.4Z" fill="black" mask="url(#path-34-inside-1_5_115)"/>
<rect x="114.5" y="145.5" width="34" height="6" fill="#FFFAFA" stroke="white" stroke-width="3"/>
<path d="M79.616 95.0479C71.0289 115.801 50.3213 126.361 33.8293 119.884C17.3373 113.408 9.93603 91.8094 18.5231 71.0563C27.1102 50.3031 47.8178 39.7432 64.3099 46.2197C80.8019 52.6962 88.2031 74.2948 79.616 95.0479Z" fill="#FDE407" stroke="black" stroke-width="5"/>
<path d="M79.7447 97.4967C76.8026 104.47 72.0454 109.841 66.843 112.935C61.641 116.027 56.1519 116.775 51.4618 114.897C46.7717 113.019 43.4086 108.727 41.9429 102.964C40.477 97.2008 40.9718 90.1232 43.9139 83.1495C46.8561 76.1758 51.6132 70.805 56.8157 67.7117C62.0176 64.6187 67.5067 63.8713 72.1969 65.7493C76.887 67.6273 80.2501 71.9192 81.7158 77.682C83.1817 83.4454 82.6869 90.523 79.7447 97.4967Z" fill="#FDE407" stroke="black" stroke-width="5"/>
<path d="M60.7038 109.436C59.6047 112.041 56.858 114.048 52.7128 114.861C48.5932 115.669 43.4102 115.201 38.2084 113.118C33.0066 111.035 28.9841 107.817 26.6383 104.42C24.2779 101.003 23.7739 97.6939 24.873 95.0886C25.9722 92.4833 28.7189 90.4763 32.8641 89.6635C36.9837 88.8558 42.1667 89.3234 47.3685 91.4063C52.5703 93.4891 56.5928 96.7075 58.9386 100.104C61.299 103.522 61.803 106.83 60.7038 109.436Z" fill="#FDE407" stroke="#FDE407" stroke-width="5"/>
<ellipse cx="61.5004" cy="43" rx="20.5" ry="20" fill="#C4C4C4"/>
<ellipse cx="84.5004" cy="48" rx="20.5" ry="20" fill="#C4C4C4"/>
<path d="M181.271 102.009C189.479 122.839 209.204 133.289 224.776 126.869C240.347 120.448 247.472 98.9253 239.264 78.0955C231.056 57.2656 211.331 46.8148 195.759 53.2356C180.188 59.6563 173.062 81.1788 181.271 102.009Z" fill="#FDE407" stroke="black" stroke-width="5"/>
<path d="M181.147 104.457C183.956 111.446 188.494 116.822 193.447 119.914C198.403 123.009 203.587 123.728 207.983 121.881C212.378 120.033 215.569 115.792 216.965 110.027C218.361 104.265 217.891 97.178 215.083 90.1892C212.275 83.2003 207.737 77.8239 202.784 74.7318C197.827 71.6374 192.643 70.9178 188.248 72.7657C183.853 74.6136 180.662 78.8542 179.266 84.6196C177.87 90.3809 178.339 97.4682 181.147 104.457Z" fill="#FDE407" stroke="black" stroke-width="5"/>
<path d="M199.282 116.396C200.341 119.032 202.97 121.028 206.883 121.833C210.78 122.635 215.682 122.171 220.605 120.102C225.527 118.032 229.332 114.835 231.551 111.462C233.779 108.074 234.276 104.764 233.217 102.128C232.158 99.4926 229.529 97.4968 225.616 96.6912C221.719 95.8889 216.816 96.3531 211.894 98.4226C206.972 100.492 203.167 103.689 200.948 107.063C198.72 110.45 198.222 113.76 199.282 116.396Z" fill="#FDE407" stroke="#FDE407" stroke-width="5"/>
<ellipse rx="19.5237" ry="20" transform="matrix(-1 0 0 1 198.429 50)" fill="#C4C4C4"/>
<ellipse rx="19.5237" ry="20" transform="matrix(-1 0 0 1 176.524 55)" fill="#C4C4C4"/>
<path d="M346.856 153.272C346.856 155.48 342.44 156.584 333.608 156.584C328.904 156.584 325.88 156.44 324.536 156.152C323.288 155.864 321.8 155.48 320.072 155C318.344 154.52 316.664 153.416 315.032 151.688C313.496 149.864 312.104 147.848 310.856 145.64C309.704 143.336 308.648 140.936 307.688 138.44C306.632 136.04 305.528 133.784 304.376 131.672C301.688 126.968 298.52 124.568 294.872 124.472C293.24 124.472 292.232 124.568 291.848 124.76L289.976 126.488C289.784 128.024 289.64 129.272 289.544 130.232C289.448 131.192 289.352 132.104 289.256 132.968C289.16 133.832 289.112 134.456 289.112 134.84C289.112 135.224 289.16 136.088 289.256 137.432C289.448 138.68 289.544 140.024 289.544 141.464C289.64 144.824 289.784 147.08 289.976 148.232C290.264 149.192 290.984 149.768 292.136 149.96L295.88 150.536C297.224 150.728 298.424 151.112 299.48 151.688C300.536 152.264 301.064 153.32 301.064 154.856C301.064 156.392 300.44 157.16 299.192 157.16C298.424 157.16 297.176 157.208 295.448 157.304C293.72 157.4 291.752 157.496 289.544 157.592C287.336 157.688 285.032 157.784 282.632 157.88L275.432 158.456C273.224 158.552 271.256 158.648 269.528 158.744C267.8 158.84 266.504 158.936 265.64 159.032C262.568 159.032 261.032 157.832 261.032 155.432C261.032 154.184 261.416 153.224 262.184 152.552C262.952 151.784 263.768 151.064 264.632 150.392C265.592 149.624 266.456 148.76 267.224 147.8C267.992 146.84 268.376 145.448 268.376 143.624C269.72 133.928 270.392 127.016 270.392 122.888V111.656C270.392 100.328 269.72 90.248 268.376 81.416C267.896 78.824 266.504 77.336 264.2 76.952C263.24 76.76 262.232 76.568 261.176 76.376C260.12 76.088 259.208 75.416 258.44 74.36L258.296 73.784C258.296 72.44 258.92 71.432 260.168 70.76C261.416 70.088 262.664 69.752 263.912 69.752L264.776 69.896C266.216 69.32 268.76 68.216 272.408 66.584L280.616 62.696C282.536 61.832 283.784 61.304 284.36 61.112C284.936 60.824 285.512 60.44 286.088 59.96L287.816 58.232C289.448 56.888 290.84 56.216 291.992 56.216C293.72 56.216 294.584 57.512 294.584 60.104C294.584 62.696 294.248 64.712 293.576 66.152C292.904 73.928 292.424 82.904 292.136 93.08C291.848 103.256 291.704 108.536 291.704 108.92V110.648L291.848 115.256V116.696C301.64 111.032 310.088 104.744 317.192 97.832C315.848 97.64 314.456 97.352 313.016 96.968C311.672 96.488 311 95.384 311 93.656C311 91.064 313.832 89.768 319.496 89.768C330.152 89.768 335.48 91.496 335.48 94.952C335.48 97.448 332.36 98.696 326.12 98.696L307.976 112.952C312.968 115.64 318.344 121.112 324.104 129.368L330.44 138.728C332.456 141.704 334.04 143.768 335.192 144.92C336.44 146.072 337.64 146.888 338.792 147.368C340.04 147.752 341.24 148.232 342.392 148.808C343.64 149.288 344.696 149.864 345.56 150.536C346.424 151.208 346.856 152.12 346.856 153.272ZM376.4 156.152C371.312 156.152 364.736 156.824 356.672 158.168C354.272 158.168 353.072 156.92 353.072 154.424C353.072 152.6 353.552 151.448 354.512 150.968C355.568 150.488 356.768 150.248 358.112 150.248C359.456 150.152 360.752 150.056 362 149.96C363.344 149.864 364.256 149.336 364.736 148.376V146.936L364.88 142.472V141.032C364.88 129.512 363.92 119.576 362 111.224C360.848 109.496 359.456 108.488 357.824 108.2C356.192 107.912 354.608 107.768 353.072 107.768C351.632 107.672 350.336 107.48 349.184 107.192C348.128 106.808 347.6 105.944 347.6 104.6C347.6 103.256 348.272 102.2 349.616 101.432C351.056 100.664 352.688 99.992 354.512 99.416C356.432 98.84 358.256 98.36 359.984 97.976C361.808 97.496 363.824 96.824 366.032 95.96L375.104 92.648C379.04 91.208 382.352 90.488 385.04 90.488C387.728 90.488 389.216 90.776 389.504 91.352C389.888 91.832 390.08 93.032 390.08 94.952C390.08 96.872 389.792 98.408 389.216 99.56L389.072 124.472C389.072 129.752 389.216 133.16 389.504 134.696C389.888 136.712 390.464 139.16 391.232 142.04C392.096 144.92 393.104 146.888 394.256 147.944C395.408 148.904 396.608 149.816 397.856 150.68L401.312 152.696C402.272 153.368 402.752 153.944 402.752 154.424C402.752 156.056 402.176 157.064 401.024 157.448C399.872 157.928 398.576 158.168 397.136 158.168L395.408 158.024C391.376 156.776 385.04 156.152 376.4 156.152ZM367.184 85.304C360.752 85.304 357.536 81.56 357.536 74.072C357.536 66.488 361.76 60.584 370.208 56.36C374.24 56.36 377.456 57.512 379.856 59.816C382.352 62.024 383.6 65.096 383.6 69.032C383.6 72.968 381.776 76.664 378.128 80.12C374.48 83.576 370.832 85.304 367.184 85.304ZM463.195 121.592C451.675 122.36 442.747 122.744 436.411 122.744H418.123C412.363 122.744 409.483 121.64 409.483 119.432C409.483 117.8 410.731 116.408 413.227 115.256L441.163 116.12L461.899 115.256C463.243 115.256 464.395 115.4 465.355 115.688C466.315 115.976 466.795 116.744 466.795 117.992C466.795 120.392 465.595 121.592 463.195 121.592ZM483.793 157.16L481.633 157.304C478.273 157.304 475.921 156.536 474.577 155C474.001 154.424 473.713 153.8 473.713 153.128C473.713 152.264 474.049 151.496 474.721 150.824C475.297 150.248 475.921 149.96 476.593 149.96H488.257C488.449 149.96 488.641 149.624 488.833 148.952C489.121 148.28 489.265 147.8 489.265 147.512C489.265 147.128 489.217 146.552 489.121 145.784C489.025 145.016 488.929 144.152 488.833 143.192C488.545 140.504 488.065 136.856 487.393 132.248C486.817 127.64 486.529 121.016 486.529 112.376L487.537 75.224C487.537 73.592 487.249 72.056 486.673 70.616C485.233 70.904 484.177 71.048 483.505 71.048C480.721 71.048 479.329 69.896 479.329 67.592C479.425 66.056 481.681 64.424 486.097 62.696L490.417 60.968L497.761 57.656C501.793 55.832 504.961 54.728 507.265 54.344C508.513 54.344 509.425 55.016 510.001 56.36C510.577 57.704 510.865 58.904 510.865 59.96C510.865 61.016 510.721 62.36 510.433 63.992C510.145 65.624 509.857 67.256 509.569 68.888L508.561 73.208C508.273 74.456 508.129 76.616 508.129 79.688C508.129 82.76 507.985 86.648 507.697 91.352C507.505 96.056 507.217 100.616 506.833 105.032C505.873 117.032 505.393 125.144 505.393 129.368C505.393 135.32 505.729 139.784 506.401 142.76C506.593 145.064 507.025 146.408 507.697 146.792C508.561 147.368 510.097 147.656 512.305 147.656H513.169C514.801 147.656 516.241 147.752 517.489 147.944C518.833 148.136 519.505 148.808 519.505 149.96C519.505 152.648 518.545 154.136 516.625 154.424C506.353 154.712 495.409 155.624 483.793 157.16ZM527.474 143.192C525.554 140.408 524.45 137.48 524.162 134.408C523.874 131.336 523.73 127.784 523.73 123.752C523.73 119.72 525.122 115.832 527.906 112.088C530.69 108.248 534.242 104.984 538.562 102.296C547.586 96.536 557.282 93.656 567.65 93.656C576.578 93.656 584.114 98.12 590.258 107.048C592.946 110.888 594.962 115.112 596.306 119.72C597.746 124.232 598.466 128.84 598.466 133.544C598.466 138.248 597.026 142.808 594.146 147.224C590.306 153.176 584.834 157.016 577.73 158.744C575.426 159.32 572.45 159.848 568.802 160.328C565.25 160.904 563.138 161.192 562.466 161.192C555.362 161.192 548.882 159.896 543.026 157.304C537.17 154.712 531.986 150.008 527.474 143.192ZM551.378 128.648C551.378 130.856 551.474 133.256 551.666 135.848C551.954 138.44 552.434 140.936 553.106 143.336C554.738 149.192 557.09 152.12 560.162 152.12C563.522 152.12 566.114 150.968 567.938 148.664C569.762 146.36 571.106 143.576 571.97 140.312C573.122 135.896 573.698 128.984 573.698 119.576C573.698 115.544 573.218 112.04 572.258 109.064C569.954 104.072 568.226 101.288 567.074 100.712C566.978 100.712 566.882 100.712 566.786 100.712C560.93 100.712 556.754 104.12 554.258 110.936C552.338 115.928 551.378 121.832 551.378 128.648ZM677.965 102.44C678.733 110.6 679.117 117.464 679.117 123.032C679.117 128.504 678.925 133.592 678.541 138.296C678.253 142.904 677.581 147.416 676.525 151.832C673.645 163.736 667.213 174.392 657.229 183.8C649.741 190.904 639.949 194.456 627.853 194.456C622.189 194.456 617.437 192.536 613.597 188.696C609.949 185.048 608.125 180.056 608.125 173.72C608.125 168.92 608.701 165.848 609.853 164.504C611.773 162.2 614.989 160.568 619.501 159.608L623.101 159.464C625.405 159.464 627.181 159.368 628.429 159.176C630.829 160.424 632.029 162.584 632.029 165.656L630.877 177.32C630.877 177.8 631.165 179.144 631.741 181.352C632.893 185.288 633.709 187.352 634.189 187.544C638.605 186.68 642.349 184.472 645.421 180.92C648.493 177.464 650.941 173.432 652.765 168.824C656.221 159.992 657.949 150.488 657.949 140.312C655.549 144.152 651.565 147.224 645.997 149.528C641.197 151.544 636.541 152.552 632.029 152.552C628.669 152.552 625.453 151.976 622.381 150.824C616.141 148.616 611.869 144.632 609.565 138.872C608.413 135.992 607.837 132.728 607.837 129.08C607.837 125.336 608.461 121.544 609.709 117.704C611.053 113.768 612.973 110.168 615.469 106.904C621.133 99.608 628.381 95.96 637.213 95.96C639.325 95.96 642.157 96.872 645.709 98.696C651.661 101.768 655.597 104.408 657.517 106.616C657.133 105.464 656.941 103.688 656.941 101.288V97.256C656.941 94.856 657.853 93.416 659.677 92.936C661.501 92.36 663.469 92.072 665.581 92.072C667.693 92.072 669.709 92.12 671.629 92.216C673.645 92.216 675.517 92.312 677.245 92.504C681.181 93.08 683.149 94.328 683.149 96.248C683.149 97.208 682.621 98.12 681.565 98.984C680.605 99.848 679.837 100.52 679.261 101C678.685 101.384 678.253 101.864 677.965 102.44ZM646.717 143.192C648.445 142.712 649.981 141.704 651.325 140.168C654.493 136.712 656.077 131.144 656.077 123.464C656.077 117.512 654.925 113.24 652.621 110.648C650.317 108.056 647.245 106.76 643.405 106.76C640.621 106.76 638.461 109.112 636.925 113.816C635.773 117.272 635.197 121.88 635.197 127.64C635.197 133.304 635.869 137.48 637.213 140.168C638.653 142.76 640.141 144.056 641.677 144.056C643.309 144.056 644.989 143.768 646.717 143.192Z" fill="#67C5FF"/>
<defs>
<filter id="filter0_d_5_115" x="116" y="118.5" width="28" height="11" filterUnits="userSpaceOnUse" color-interpolation-filters="sRGB">
<feFlood flood-opacity="0" result="BackgroundImageFix"/>
<feColorMatrix in="SourceAlpha" type="matrix" values="0 0 0 0 0 0 0 0 0 0 0 0 0 0 0 0 0 0 127 0" result="hardAlpha"/>
<feOffset dy="4"/>
<feGaussianBlur stdDeviation="2"/>
<feComposite in2="hardAlpha" operator="out"/>
<feColorMatrix type="matrix" values="0 0 0 0 0 0 0 0 0 0 0 0 0 0 0 0 0 0 0.25 0"/>
<feBlend mode="normal" in2="BackgroundImageFix" result="effect1_dropShadow_5_115"/>
<feBlend mode="normal" in="SourceGraphic" in2="effect1_dropShadow_5_115" result="shape"/>
</filter>
<filter id="filter1_d_5_115" x="124.503" y="158.906" width="11.9941" height="24.1871" filterUnits="userSpaceOnUse" color-interpolation-filters="sRGB">
<feFlood flood-opacity="0" result="BackgroundImageFix"/>
<feColorMatrix in="SourceAlpha" type="matrix" values="0 0 0 0 0 0 0 0 0 0 0 0 0 0 0 0 0 0 127 0" result="hardAlpha"/>
<feOffset dy="4"/>
<feGaussianBlur stdDeviation="2"/>
<feComposite in2="hardAlpha" operator="out"/>
<feColorMatrix type="matrix" values="0 0 0 0 0 0 0 0 0 0 0 0 0 0 0 0 0 0 0.25 0"/>
<feBlend mode="normal" in2="BackgroundImageFix" result="effect1_dropShadow_5_115"/>
<feBlend mode="normal" in="SourceGraphic" in2="effect1_dropShadow_5_115" result="shape"/>
</filter>
<filter id="filter2_d_5_115" x="152.087" y="85.81" width="52.8264" height="43.3799" filterUnits="userSpaceOnUse" color-interpolation-filters="sRGB">
<feFlood flood-opacity="0" result="BackgroundImageFix"/>
<feColorMatrix in="SourceAlpha" type="matrix" values="0 0 0 0 0 0 0 0 0 0 0 0 0 0 0 0 0 0 127 0" result="hardAlpha"/>
<feOffset dy="4"/>
<feGaussianBlur stdDeviation="2"/>
<feComposite in2="hardAlpha" operator="out"/>
<feColorMatrix type="matrix" values="0 0 0 0 0 0 0 0 0 0 0 0 0 0 0 0 0 0 0.25 0"/>
<feBlend mode="normal" in2="BackgroundImageFix" result="effect1_dropShadow_5_115"/>
<feBlend mode="normal" in="SourceGraphic" in2="effect1_dropShadow_5_115" result="shape"/>
</filter>
<filter id="filter3_d_5_115" x="56.0599" y="85.8315" width="50.881" height="43.337" filterUnits="userSpaceOnUse" color-interpolation-filters="sRGB">
<feFlood flood-opacity="0" result="BackgroundImageFix"/>
<feColorMatrix in="SourceAlpha" type="matrix" values="0 0 0 0 0 0 0 0 0 0 0 0 0 0 0 0 0 0 127 0" result="hardAlpha"/>
<feOffset dy="4"/>
<feGaussianBlur stdDeviation="2"/>
<feComposite in2="hardAlpha" operator="out"/>
<feColorMatrix type="matrix" values="0 0 0 0 0 0 0 0 0 0 0 0 0 0 0 0 0 0 0.25 0"/>
<feBlend mode="normal" in2="BackgroundImageFix" result="effect1_dropShadow_5_115"/>
<feBlend mode="normal" in="SourceGraphic" in2="effect1_dropShadow_5_115" result="shape"/>
</filter>
</defs>
</svg>
